Coordinates
version=1
nRows=28
nColumns=33
inDegrees=yes

Units are S.I. units (second, meters, Newtons, ...)
Angles are in degrees.

endheader
time	ground_thorax_rot_x	ground_thorax_rot_y	ground_thorax_rot_z	ground_thorax_tx	ground_thorax_ty	ground_thorax_tz	clav_prot_r	clav_elev_r	scapula_abduction_r	scapula_elevation_r	scapula_upward_rot_r	scapula_winging_r	shoulder_elv_r	plane_of_elev_r	axial_rot_r	elbow_flexion_r	pro_sup_r	wrist_flex_r	wrist_dev_r	clav_prot_l	clav_elev_l	scapula_abduction_l	scapula_elevation_l	scapula_upward_rot_l	scapula_winging_l	shoulder_elv_l	plane_of_elev_l	axial_rot_l	elbow_flexion_l	pro_sup_l	wrist_flex_l	wrist_dev_l	
4.2000	-37.662619	-10.326723	12.798077	-180.593797	816.323293	5.533108	7.451564	-45.000000	44.091427	-45.000000	-20.771594	2061.017477	-471.785832	148.069603	-119.172040	1091.292160	2.984342	17.740741	11.228303	-4.579941	41.217022	-45.000000	-44.996003	44.999792	-597.291551	803.922972	10.805251	180.000000	1812.508125	214.013074	9.713356	-13.709692	
4.2100	-37.645473	-10.666763	12.946948	-176.769380	813.838981	5.488307	7.389489	-45.000000	44.115349	-45.000000	-20.821968	2061.345084	-472.158972	148.124892	-119.070906	1091.022987	0.523266	17.532242	11.704088	-4.394588	41.359656	-45.000000	-44.992838	44.999628	-597.197926	803.620578	10.719526	180.000000	1812.414826	214.553088	9.631459	-13.579112	
4.2200	-37.627744	-11.004869	13.068382	-172.884487	811.302245	5.444136	7.338731	-45.000000	44.195330	-45.000000	-20.726044	2061.645306	-472.519993	148.196864	-119.057983	1090.938389	0.470102	17.351119	11.914079	-4.253660	41.473983	-45.000000	-44.987176	44.999333	-597.091932	803.320130	10.622837	180.000000	1812.325572	215.124669	9.530085	-13.445837	
4.2300	-37.623817	-11.291370	13.104959	-168.950739	808.725933	5.400757	7.310437	-45.000000	44.347036	-45.000000	-20.401758	2061.888715	-472.927915	148.298347	-118.893829	1090.847546	0.570838	17.201784	12.105578	-4.172678	41.575470	-45.000000	-44.977016	44.998806	-596.958998	802.973553	10.546430	180.000000	1812.226221	215.748120	9.413521	-13.317649	
4.2400	-37.619205	-11.568170	13.116495	-164.979484	806.121904	5.358571	7.298244	-45.000000	44.493642	-45.000000	-19.983286	2062.163590	-473.316535	148.468347	-118.671836	1090.766963	0.783289	17.047422	12.330679	-4.238204	41.588511	-45.000000	-44.958864	44.997861	-596.805940	802.614236	10.472254	180.000000	1812.128668	216.408347	9.226820	-13.134699	
4.2500	-37.623383	-11.820929	13.100696	-160.981131	803.500755	5.318587	7.286978	-45.000000	44.635150	-45.000000	-19.532101	2062.432241	-473.717740	148.651287	-118.401603	1090.683218	1.072471	16.899703	12.544277	-4.321251	41.600606	-45.000000	-44.926217	44.996168	-596.656024	802.246803	10.402457	180.000000	1812.039463	217.083233	9.026828	-12.942251	
4.2600	-37.622488	-12.069414	13.077984	-156.964814	800.871783	5.282521	7.270211	-45.000000	44.754490	-45.000000	-19.030374	2062.750952	-474.083449	148.905186	-118.086930	1090.603489	1.428958	16.750415	12.798872	-4.478088	41.532270	-45.000000	-44.868104	44.993138	-596.524736	801.894616	10.315192	180.000000	1811.959116	217.760158	8.772223	-12.701993	
4.2700	-37.623340	-12.279337	13.017776	-152.938372	798.243987	5.252828	7.222291	-45.000000	44.864480	-45.000000	-18.499896	2063.069292	-474.446852	149.159687	-117.736949	1090.511526	1.834706	16.611064	13.036363	-4.613255	41.451342	-45.000000	-44.762983	44.987703	-596.433495	801.545900	10.228561	180.000000	1811.887476	218.424598	8.518248	-12.462268	
4.2800	-37.615028	-12.456071	12.933742	-148.908610	795.627055	5.232456	7.125840	-45.000000	44.937013	-45.000000	-17.981781	2063.422933	-474.774860	149.420239	-117.371609	1090.403895	2.288291	16.480271	13.274383	-4.700385	41.324070	-45.000000	-44.577538	44.977986	-596.422879	801.228719	10.125975	180.000000	1811.814160	219.063507	8.260364	-12.222471	
4.2900	-37.595332	-12.586281	12.836842	-144.881926	793.032744	5.224690	6.966645	-45.000000	44.966864	-45.000000	-17.534390	2063.762997	-475.092608	149.628112	-117.015691	1090.269724	2.782168	16.370012	13.456381	-4.662249	41.197273	-45.000000	-44.294280	44.960531	-596.517627	800.946105	10.014681	180.000000	1811.740257	219.665770	8.042310	-12.022173	
4.3000	-37.555947	-12.664265	12.707485	-140.864716	790.475298	5.233007	6.777556	-45.000000	44.979973	-45.000000	-17.054841	2064.087250	-475.393308	149.813260	-116.657241	1090.111954	3.337658	16.269454	13.618132	-4.675371	40.974280	-45.000000	-43.907579	44.929400	-596.678014	800.670413	9.932256	180.000000	1811.658832	220.249144	7.815520	-11.822728	
4.3100	-37.498556	-12.684247	12.544941	-136.863959	787.971647	5.261483	6.564541	-45.000000	44.990897	-45.000000	-16.523360	2064.365649	-475.693041	149.964973	-116.297260	1089.934488	3.966614	16.184702	13.737817	-4.761137	40.673158	-45.000000	-43.428233	44.873254	-596.896234	800.383741	9.889255	180.000000	1811.571453	220.832803	7.589607	-11.635182	
4.3200	-37.427096	-12.659488	12.354925	-132.887047	785.540601	5.315297	6.344931	-45.000000	45.000000	-45.000000	-15.966332	2064.605919	-475.991275	150.078509	-115.925002	1089.744666	4.688627	16.118902	13.823324	-4.887867	40.319963	-45.000000	-42.867622	44.773747	-597.175388	800.090698	9.881592	180.000000	1811.473373	221.436366	7.372990	-11.470442	
4.3300	-37.339455	-12.618298	12.179674	-128.943309	783.203580	5.402553	6.119718	-45.000000	45.000000	-45.000000	-15.430698	2064.818737	-476.276984	150.171549	-115.546329	1089.553010	5.518705	16.078814	13.870856	-4.999279	39.944552	-45.000000	-42.251319	44.592522	-597.533485	799.798380	9.879212	180.000000	1811.362550	222.072227	7.170922	-11.334508	
4.3400	-37.240247	-12.568189	12.013438	-125.044125	780.984046	5.534700	5.901944	-45.000000	45.000000	-45.000000	-14.905879	2065.015099	-476.547859	150.252244	-115.156799	1089.366604	6.482024	16.065391	13.894092	-5.079509	39.561046	-45.000000	-41.591162	44.276214	-597.977982	799.492712	9.886463	180.000000	1811.226336	222.760292	6.983306	-11.231515	
4.3500	-37.120174	-12.527525	11.894946	-121.209881	778.914786	5.734444	5.701746	-45.000000	45.000000	-45.000000	-14.436610	2065.205459	-476.781978	150.333164	-114.758195	1089.191018	7.590357	16.083383	13.895993	-5.072352	39.199689	-45.000000	-40.884706	43.686395	-598.559050	799.149081	9.897049	180.000000	1811.033788	223.518999	6.821370	-11.181863	
4.3600	-36.969181	-12.502014	11.849288	-117.466916	777.031833	6.028569	5.526658	-45.000000	45.000000	-45.000000	-14.033855	2065.377425	-476.973688	150.414769	-114.354110	1089.029351	8.848815	16.133859	13.878531	-4.913807	38.875162	-45.000000	-40.111493	42.694676	-599.341278	798.755632	9.915786	180.000000	1810.760526	224.359346	6.702871	-11.209563	
4.3700	-36.739453	-12.511554	11.988190	-113.881954	775.418368	6.496457	5.416560	-45.000000	45.000000	-45.000000	-13.778969	2065.466626	-477.114987	150.480228	-113.963405	1088.862001	10.169792	16.193167	13.843786	-4.480976	38.588552	-45.000000	-39.175019	40.737299	-600.545342	798.173757	9.998906	180.000000	1810.316718	225.259993	6.648083	-11.364839	
4.3800	-36.424699	-12.518293	12.289808	-110.506826	774.129799	7.184448	5.347350	-45.000000	45.000000	-45.000000	-13.606111	2065.450887	-477.214733	150.533959	-113.599929	1088.692098	11.471725	16.246961	13.794847	-3.750121	38.319655	-45.000000	-38.062742	37.736080	-602.223439	797.389798	10.173470	180.000000	1809.694962	226.184817	6.656808	-11.651965	
4.3900	-35.937138	-12.409261	12.744575	-107.589515	773.484338	8.434453	5.271360	-45.000000	45.000000	-45.000000	-13.392789	2065.299687	-477.241089	150.584231	-113.237211	1088.508601	12.677502	16.273672	13.734456	-2.689823	38.024547	-45.000000	-36.744413	33.592998	-604.449620	796.346356	10.444527	180.000000	1808.855826	227.158434	6.738944	-12.109891	
4.4000	-35.335909	-12.160801	13.226368	-105.083486	773.396395	10.123374	5.165270	-45.000000	45.000000	-45.000000	-13.063803	2065.062704	-477.218801	150.628701	-112.887022	1088.324732	13.766123	16.272557	13.663662	-1.467088	37.656508	-45.000000	-35.361306	28.986462	-606.925035	795.208668	10.776290	180.000000	1807.919302	228.172530	6.851135	-12.655203	
4.4100	-34.657525	-11.787394	13.692488	-102.945871	773.784154	12.137543	5.029002	-45.000000	45.000000	-45.000000	-12.636678	2064.769874	-477.158916	150.657789	-112.560285	1088.140728	14.708261	16.237563	13.584155	-0.173239	37.217802	-45.000000	-33.982422	24.210452	-609.512696	794.051454	11.149310	180.000000	1806.926144	229.210771	6.962179	-13.239699	
4.4200	-34.057571	-11.371021	14.010066	-100.892606	774.237532	13.998864	4.859728	-45.000000	45.000000	-45.000000	-12.132629	2064.525591	-477.105108	150.683384	-112.280694	1087.985457	15.543399	16.189971	13.499577	0.996293	36.741049	-45.000000	-32.794283	20.049424	-611.850556	793.106598	11.513577	180.000000	1806.016717	230.201365	7.013227	-13.737463	
4.4300	-33.555604	-10.928589	14.163933	-98.900764	774.704445	15.650331	4.647679	-45.000000	45.000000	-45.000000	-11.552655	2064.350808	-477.059487	150.711059	-112.027680	1087.864924	16.319193	16.140961	13.405197	2.004347	36.270820	-45.000000	-31.828296	16.601134	-613.895096	792.403323	11.846245	180.000000	1805.190794	231.121416	7.002739	-14.139114	
4.4400	-33.244336	-10.579226	14.159412	-96.749588	774.863543	16.731842	4.440929	-45.000000	45.000000	-45.000000	-11.019208	2064.278900	-477.057466	150.734115	-111.828016	1087.790541	17.060613	16.102343	13.301421	2.803507	35.850114	-45.000000	-31.139167	14.034337	-615.528198	792.018114	12.137391	180.000000	1804.502532	231.880798	6.918410	-14.391232	
4.4500	-33.081065	-10.327118	14.072757	-94.503693	774.782698	17.332021	4.241982	-45.000000	45.000000	-45.000000	-10.557735	2064.270883	-477.087449	150.758230	-111.678728	1087.754129	17.738318	16.064516	13.195111	3.513820	35.517681	-45.000000	-30.615992	11.864278	-616.972287	791.815489	12.409695	180.000000	1803.869521	232.422339	6.794475	-14.549936	
4.4600	-33.045888	-10.163843	13.922681	-92.224668	774.526676	17.511335	4.047771	-45.000000	45.000000	-45.000000	-10.153802	2064.316778	-477.145149	150.796300	-111.569582	1087.758616	18.331151	16.023812	13.089648	4.163622	35.269117	-45.000000	-30.222490	9.999065	-618.264720	791.749914	12.665576	180.000000	1803.293148	232.706010	6.649585	-14.631669	
4.4700	-33.036802	-9.992958	13.731084	-90.174449	774.437068	17.634463	3.825228	-45.000000	45.000000	-45.000000	-9.699615	2064.378936	-477.202044	150.862511	-111.462666	1087.799390	18.834176	15.969441	12.981656	4.781523	35.061022	-45.000000	-29.886742	8.296146	-619.488377	791.720399	12.894426	180.000000	1802.740822	232.786192	6.514519	-14.695032	
